# xmcd
#
# Track frame offsets: 
#        150
#        17277
#        36822
#        51547
#        66905
#        77212
#        97510
#        113807
#        134855
#        151505
#
# Disc length: 2227 seconds
#
# Revision: 1
# Processed by: cddbd v1.5.2PL0 Copyright (c) Steve Scherf et al.
# Submitted via: ExactAudioCopy v1.0b1
#
DISCID=7708b10a
DTITLE=Kris Kristofferson - Super Hits
DYEAR=1999
DGENRE=Country
TTITLE0=Loving Her Was Easier (Than Anything I'll Ever Do Again)
TTITLE1=Me and Bobby McGee
TTITLE2=The Pilgrim, Chapter 33
TTITLE3=For the Good Times
TTITLE4=Help Me Make It Through the Night
TTITLE5=Sunday Mornin' Comin' Down
TTITLE6=Just the Other Side of Nowhere
TTITLE7=To Beat the Devil
TTITLE8=Casey's Last Ride
TTITLE9=Why Me
EXTD=
EXTT0=
EXTT1=
EXTT2=
EXTT3=
EXTT4=
EXTT5=
EXTT6=
EXTT7=
EXTT8=
EXTT9=
PLAYORDER=
